STARTFONT 2.1
COMMENT
COMMENT /efont/ 16dot Kanji font
COMMENT 	for JISX 0201, 1976
COMMENT
COMMENT          This file includeds only the difference from
COMMENT          latin1/font_src.bit. Please marge them with
COMMENT          `bdfmarge' command.
COMMENT
COMMENT Designed by /efont/ <efont@ring.gr.jp>, 2000
COMMENT
FONT -Shinonome-Gothic-Medium-R-Normal--18-170-75-75-C-90-JISX0201.1976-0
SIZE 18 75 75
FONTBOUNDINGBOX 9 18 0 -2
STARTPROPERTIES 20
FONTNAME_REGISTRY ""
FOUNDRY "Shinonome"
FAMILY_NAME "Gothic"
WEIGHT_NAME "Medium"
SLANT "R"
SETWIDTH_NAME "Normal"
ADD_STYLE_NAME ""
PIXEL_SIZE 18
POINT_SIZE 169
RESOLUTION_X 75
RESOLUTION_Y 75
SPACING "C"
AVERAGE_WIDTH 90
CHARSET_REGISTRY "JISX0201.1976"
CHARSET_ENCODING "0"
DEFAULT_CHAR 32
FONT_DESCENT 2
FONT_ASCENT 16
COPYRIGHT "Public Domain"
_XMBDFED_INFO "Edited with xmbdfed 4.4."
ENDPROPERTIES
CHARS 221
STARTCHAR 01
ENCODING 1
SWIDTH 480 0
DWIDTH 9 0
BBX 9 18 0 -2
BITMAP
0800
0800
1c00
1c00
1c00
3e00
3e00
7f00
7f00
3e00
3e00
1c00
1c00
1c00
0800
0800
0000
0000
ENDCHAR
STARTCHAR 02
ENCODING 2
SWIDTH 480 0
DWIDTH 9 0
BBX 9 18 0 -2
BITMAP
aa80
5500
aa80
5500
aa80
5500
aa80
5500
aa80
5500
aa80
5500
aa80
5500
aa80
5500
0000
0000
ENDCHAR
STARTCHAR 03
ENCODING 3
SWIDTH 480 0
DWIDTH 9 0
BBX 9 18 0 -2
BITMAP
4400
4400
4400
4400
7c00
4400
4400
4400
0000
0f80
0200
0200
0200
0200
0200
0200
0200
0000
ENDCHAR
STARTCHAR 04
ENCODING 4
SWIDTH 480 0
DWIDTH 9 0
BBX 9 18 0 -2
BITMAP
7e00
4000
4000
7800
4000
4000
4000
4000
0000
1f80
1000
1000
1e00
1000
1000
1000
1000
0000
ENDCHAR
STARTCHAR 05
ENCODING 5
SWIDTH 480 0
DWIDTH 9 0
BBX 9 18 0 -2
BITMAP
7800
8400
8000
8000
8000
8000
8400
7800
0000
3e00
2100
2100
3e00
2400
2200
2200
2100
0000
ENDCHAR
STARTCHAR 06
ENCODING 6
SWIDTH 480 0
DWIDTH 9 0
BBX 9 18 0 -2
BITMAP
4000
4000
4000
4000
4000
4000
4000
7e00
0000
1f80
1000
1000
1f00
1000
1000
1000
1000
0000
ENDCHAR
STARTCHAR 07
ENCODING 7
SWIDTH 480 0
DWIDTH 9 0
BBX 9 18 0 -2
BITMAP
0000
0000
1800
2400
4200
4200
2400
1800
0000
0000
0000
0000
0000
0000
0000
0000
0000
0000
ENDCHAR
STARTCHAR    8
ENCODING 8
SWIDTH 480 0
DWIDTH 9 0
BBX 9 18 0 -2
BITMAP
0000
0000
0000
0000
0800
0800
0800
7f00
0800
0800
0800
0000
0000
0000
7f00
0000
0000
0000
ENDCHAR
STARTCHAR    9
ENCODING 9
SWIDTH 480 0
DWIDTH 9 0
BBX 9 18 0 -2
BITMAP
c200
c200
a200
a200
9200
9200
8a00
8a00
8600
2000
2000
2000
2000
2000
2000
2000
3f00
0000
ENDCHAR
STARTCHAR    a
ENCODING 10
SWIDTH 480 0
DWIDTH 9 0
BBX 9 18 0 -2
BITMAP
8800
8800
8800
8800
8800
5000
5000
2000
0000
1f00
0400
0400
0400
0400
0400
0400
0400
0000
ENDCHAR
STARTCHAR    b
ENCODING 11
SWIDTH 480 0
DWIDTH 9 0
BBX 9 18 0 -2
BITMAP
0800
0800
0800
0800
0800
0800
0800
0800
0800
f800
0000
0000
0000
0000
0000
0000
0000
0000
ENDCHAR
STARTCHAR    c
ENCODING 12
SWIDTH 480 0
DWIDTH 9 0
BBX 9 18 0 -2
BITMAP
0000
0000
0000
0000
0000
0000
0000
0000
0000
f800
0800
0800
0800
0800
0800
0800
0800
0800
ENDCHAR
STARTCHAR    d
ENCODING 13
SWIDTH 480 0
DWIDTH 9 0
BBX 9 18 0 -2
BITMAP
0000
0000
0000
0000
0000
0000
0000
0000
0000
0f80
0800
0800
0800
0800
0800
0800
0800
0800
ENDCHAR
STARTCHAR    e
ENCODING 14
SWIDTH 480 0
DWIDTH 9 0
BBX 9 18 0 -2
BITMAP
0800
0800
0800
0800
0800
0800
0800
0800
0800
0f80
0000
0000
0000
0000
0000
0000
0000
0000
ENDCHAR
STARTCHAR    f
ENCODING 15
SWIDTH 480 0
DWIDTH 9 0
BBX 9 18 0 -2
BITMAP
0800
0800
0800
0800
0800
0800
0800
0800
0800
ff80
0800
0800
0800
0800
0800
0800
0800
0800
ENDCHAR
STARTCHAR   10
ENCODING 16
SWIDTH 480 0
DWIDTH 9 0
BBX 9 18 0 -2
BITMAP
0000
0000
ff80
0000
0000
0000
0000
0000
0000
0000
0000
0000
0000
0000
0000
0000
0000
0000
ENDCHAR
STARTCHAR   11
ENCODING 17
SWIDTH 480 0
DWIDTH 9 0
BBX 9 18 0 -2
BITMAP
0000
0000
0000
0000
0000
ff80
0000
0000
0000
0000
0000
0000
0000
0000
0000
0000
0000
0000
ENDCHAR
STARTCHAR   12
ENCODING 18
SWIDTH 480 0
DWIDTH 9 0
BBX 9 18 0 -2
BITMAP
0000
0000
0000
0000
0000
0000
0000
0000
0000
ff80
0000
0000
0000
0000
0000
0000
0000
0000
ENDCHAR
STARTCHAR   13
ENCODING 19
SWIDTH 480 0
DWIDTH 9 0
BBX 9 18 0 -2
BITMAP
0000
0000
0000
0000
0000
0000
0000
0000
0000
0000
0000
0000
ff80
0000
0000
0000
0000
0000
ENDCHAR
STARTCHAR   14
ENCODING 20
SWIDTH 480 0
DWIDTH 9 0
BBX 9 18 0 -2
BITMAP
0000
0000
0000
0000
0000
0000
0000
0000
0000
0000
0000
0000
0000
0000
0000
0000
ff80
0000
ENDCHAR
STARTCHAR   15
ENCODING 21
SWIDTH 480 0
DWIDTH 9 0
BBX 9 18 0 -2
BITMAP
0800
0800
0800
0800
0800
0800
0800
0800
0800
0f80
0800
0800
0800
0800
0800
0800
0800
0800
ENDCHAR
STARTCHAR   16
ENCODING 22
SWIDTH 480 0
DWIDTH 9 0
BBX 9 18 0 -2
BITMAP
0800
0800
0800
0800
0800
0800
0800
0800
0800
f800
0800
0800
0800
0800
0800
0800
0800
0800
ENDCHAR
STARTCHAR   17
ENCODING 23
SWIDTH 480 0
DWIDTH 9 0
BBX 9 18 0 -2
BITMAP
0800
0800
0800
0800
0800
0800
0800
0800
0800
ff80
0000
0000
0000
0000
0000
0000
0000
0000
ENDCHAR
STARTCHAR   18
ENCODING 24
SWIDTH 480 0
DWIDTH 9 0
BBX 9 18 0 -2
BITMAP
0000
0000
0000
0000
0000
0000
0000
0000
0000
ff80
0800
0800
0800
0800
0800
0800
0800
0800
ENDCHAR
STARTCHAR   19
ENCODING 25
SWIDTH 480 0
DWIDTH 9 0
BBX 9 18 0 -2
BITMAP
0800
0800
0800
0800
0800
0800
0800
0800
0800
0800
0800
0800
0800
0800
0800
0800
0800
0800
ENDCHAR
STARTCHAR   1a
ENCODING 26
SWIDTH 480 0
DWIDTH 9 0
BBX 9 18 0 -2
BITMAP
0000
0000
0300
0c00
3000
c000
3000
0c00
0300
0000
0000
ff00
0000
0000
ff00
0000
0000
0000
ENDCHAR
STARTCHAR   1b
ENCODING 27
SWIDTH 480 0
DWIDTH 9 0
BBX 9 18 0 -2
BITMAP
0000
0000
c000
3000
0c00
0300
0c00
3000
c000
0000
0000
ff00
0000
0000
ff00
0000
0000
0000
ENDCHAR
STARTCHAR   1c
ENCODING 28
SWIDTH 480 0
DWIDTH 9 0
BBX 9 18 0 -2
BITMAP
0000
0000
0000
0000
0000
0000
0000
0000
ff00
2400
2400
2400
2400
2400
4400
8300
0000
0000
ENDCHAR
STARTCHAR   1d
ENCODING 29
SWIDTH 480 0
DWIDTH 9 0
BBX 9 18 0 -2
BITMAP
0000
0000
0000
0000
0000
0100
0200
ff00
0800
1000
ff00
4000
8000
0000
0000
0000
0000
0000
ENDCHAR
STARTCHAR   1e
ENCODING 30
SWIDTH 480 0
DWIDTH 9 0
BBX 9 18 0 -2
BITMAP
0000
0000
0000
0000
1c00
2200
2000
2000
2000
2000
fe00
2000
2000
2000
7c00
a300
4000
0000
ENDCHAR
STARTCHAR   1f
ENCODING 31
SWIDTH 480 0
DWIDTH 9 0
BBX 9 18 0 -2
BITMAP
0000
0000
0000
0000
0000
0000
0000
0000
0000
0800
0000
0000
0000
0000
0000
0000
0000
0000
ENDCHAR
STARTCHAR 20
ENCODING 32
SWIDTH 480 0
DWIDTH 9 0
BBX 9 18 0 -2
BITMAP
0000
0000
0000
0000
0000
0000
0000
0000
0000
0000
0000
0000
0000
0000
0000
0000
0000
0000
ENDCHAR
STARTCHAR 21
ENCODING 33
SWIDTH 480 0
DWIDTH 9 0
BBX 9 18 0 -2
BITMAP
0000
0800
1c00
1c00
1c00
1c00
1c00
0800
0800
0800
0800
0800
0000
0000
0000
0800
0800
0000
ENDCHAR
STARTCHAR 22
ENCODING 34
SWIDTH 480 0
DWIDTH 9 0
BBX 9 18 0 -2
BITMAP
0000
6600
6600
2200
2200
4400
0000
0000
0000
0000
0000
0000
0000
0000
0000
0000
0000
0000
ENDCHAR
STARTCHAR 23
ENCODING 35
SWIDTH 480 0
DWIDTH 9 0
BBX 9 18 0 -2
BITMAP
0000
1200
1200
1200
1200
7f80
1200
2400
2400
2400
2400
ff00
2400
4800
4800
4800
4800
0000
ENDCHAR
STARTCHAR 24
ENCODING 36
SWIDTH 480 0
DWIDTH 9 0
BBX 9 18 0 -2
BITMAP
0800
3c00
4a00
8900
8900
8900
8800
4800
3c00
0a00
0900
8900
8900
8900
4a00
3c00
0800
0800
ENDCHAR
STARTCHAR 25
ENCODING 37
SWIDTH 480 0
DWIDTH 9 0
BBX 9 18 0 -2
BITMAP
0080
6080
9100
9100
9200
9200
9400
6400
0800
0800
1300
1480
2480
2480
4480
4480
8300
8000
ENDCHAR
STARTCHAR 26
ENCODING 38
SWIDTH 480 0
DWIDTH 9 0
BBX 9 18 0 -2
BITMAP
0000
1800
2400
4200
4200
4400
2800
1000
2800
4400
8400
8280
8100
8280
4400
3800
0000
0000
ENDCHAR
STARTCHAR 27
ENCODING 39
SWIDTH 480 0
DWIDTH 9 0
BBX 9 18 0 -2
BITMAP
0000
6000
6000
2000
2000
4000
0000
0000
0000
0000
0000
0000
0000
0000
0000
0000
0000
0000
ENDCHAR
STARTCHAR 28
ENCODING 40
SWIDTH 480 0
DWIDTH 9 0
BBX 9 18 0 -2
BITMAP
0200
0400
0800
1000
1000
2000
2000
2000
2000
2000
2000
2000
2000
1000
1000
0800
0400
0200
ENDCHAR
STARTCHAR 29
ENCODING 41
SWIDTH 480 0
DWIDTH 9 0
BBX 9 18 0 -2
BITMAP
4000
2000
1000
0800
0800
0400
0400
0400
0400
0400
0400
0400
0400
0800
0800
1000
2000
4000
ENDCHAR
STARTCHAR 2a
ENCODING 42
SWIDTH 480 0
DWIDTH 9 0
BBX 9 18 0 -2
BITMAP
0000
0000
0000
0000
0000
0800
4900
2a00
1c00
2a00
4900
0800
0000
0000
0000
0000
0000
0000
ENDCHAR
STARTCHAR 2b
ENCODING 43
SWIDTH 480 0
DWIDTH 9 0
BBX 9 18 0 -2
BITMAP
0000
0000
0000
0000
0800
0800
0800
0800
7f00
0800
0800
0800
0800
0000
0000
0000
0000
0000
ENDCHAR
STARTCHAR 2c
ENCODING 44
SWIDTH 480 0
DWIDTH 9 0
BBX 9 18 0 -2
BITMAP
0000
0000
0000
0000
0000
0000
0000
0000
0000
0000
0000
0000
0000
6000
6000
2000
2000
4000
ENDCHAR
STARTCHAR 2d
ENCODING 45
SWIDTH 480 0
DWIDTH 9 0
BBX 9 18 0 -2
BITMAP
0000
0000
0000
0000
0000
0000
0000
0000
7f00
0000
0000
0000
0000
0000
0000
0000
0000
0000
ENDCHAR
STARTCHAR 2e
ENCODING 46
SWIDTH 480 0
DWIDTH 9 0
BBX 9 18 0 -2
BITMAP
0000
0000
0000
0000
0000
0000
0000
0000
0000
0000
0000
0000
0000
0000
6000
6000
0000
0000
ENDCHAR
STARTCHAR 2f
ENCODING 47
SWIDTH 480 0
DWIDTH 9 0
BBX 9 18 0 -2
BITMAP
0100
0100
0200
0200
0400
0400
0800
0800
1000
1000
2000
2000
4000
4000
8000
8000
0000
0000
ENDCHAR
STARTCHAR 30
ENCODING 48
SWIDTH 480 0
DWIDTH 9 0
BBX 9 18 0 -2
BITMAP
0000
1c00
2200
2200
4100
4100
4100
4100
4100
4100
4100
4100
4100
2200
2200
1c00
0000
0000
ENDCHAR
STARTCHAR 31
ENCODING 49
SWIDTH 480 0
DWIDTH 9 0
BBX 9 18 0 -2
BITMAP
0000
0800
0800
1800
2800
4800
0800
0800
0800
0800
0800
0800
0800
0800
0800
0800
0000
0000
ENDCHAR
STARTCHAR 32
ENCODING 50
SWIDTH 480 0
DWIDTH 9 0
BBX 9 18 0 -2
BITMAP
0000
1c00
2200
4100
4100
4100
4100
0100
0200
0200
0400
0800
1000
2000
4000
7f00
0000
0000
ENDCHAR
STARTCHAR 33
ENCODING 51
SWIDTH 480 0
DWIDTH 9 0
BBX 9 18 0 -2
BITMAP
0000
1c00
2200
4100
4100
0100
0100
0200
1c00
0200
0100
0100
4100
4100
2200
1c00
0000
0000
ENDCHAR
STARTCHAR 34
ENCODING 52
SWIDTH 480 0
DWIDTH 9 0
BBX 9 18 0 -2
BITMAP
0000
0400
0c00
0c00
1400
2400
2400
4400
4400
8400
ff00
0400
0400
0400
0400
0400
0000
0000
ENDCHAR
STARTCHAR 35
ENCODING 53
SWIDTH 480 0
DWIDTH 9 0
BBX 9 18 0 -2
BITMAP
0000
3e00
2000
2000
2000
4000
4000
5c00
6200
0100
0100
4100
4100
4100
2200
1c00
0000
0000
ENDCHAR
STARTCHAR 36
ENCODING 54
SWIDTH 480 0
DWIDTH 9 0
BBX 9 18 0 -2
BITMAP
0000
1c00
2200
4100
4000
4000
4000
5c00
6200
4100
4100
4100
4100
4100
2200
1c00
0000
0000
ENDCHAR
STARTCHAR 37
ENCODING 55
SWIDTH 480 0
DWIDTH 9 0
BBX 9 18 0 -2
BITMAP
0000
ff00
0100
0200
0200
0400
0800
0800
0800
0800
1000
1000
1000
1000
1000
1000
0000
0000
ENDCHAR
STARTCHAR 38
ENCODING 56
SWIDTH 480 0
DWIDTH 9 0
BBX 9 18 0 -2
BITMAP
0000
1c00
2200
4100
4100
4100
4100
2200
1c00
2200
4100
4100
4100
4100
2200
1c00
0000
0000
ENDCHAR
STARTCHAR 39
ENCODING 57
SWIDTH 480 0
DWIDTH 9 0
BBX 9 18 0 -2
BITMAP
0000
1c00
2200
4100
4100
4100
4100
4100
2300
1d00
0100
0100
4100
4100
2200
1c00
0000
0000
ENDCHAR
STARTCHAR 3a
ENCODING 58
SWIDTH 480 0
DWIDTH 9 0
BBX 9 18 0 -2
BITMAP
0000
0000
0000
0000
1800
1800
0000
0000
0000
0000
0000
0000
1800
1800
0000
0000
0000
0000
ENDCHAR
STARTCHAR 3b
ENCODING 59
SWIDTH 480 0
DWIDTH 9 0
BBX 9 18 0 -2
BITMAP
0000
0000
0000
0000
1800
1800
0000
0000
0000
0000
0000
0000
1800
1800
0800
0800
1000
0000
ENDCHAR
STARTCHAR 3c
ENCODING 60
SWIDTH 480 0
DWIDTH 9 0
BBX 9 18 0 -2
BITMAP
0000
0000
0100
0200
0400
0800
1000
2000
4000
2000
1000
0800
0400
0200
0100
0000
0000
0000
ENDCHAR
STARTCHAR 3d
ENCODING 61
SWIDTH 480 0
DWIDTH 9 0
BBX 9 18 0 -2
BITMAP
0000
0000
0000
0000
0000
0000
ff00
0000
0000
0000
ff00
0000
0000
0000
0000
0000
0000
0000
ENDCHAR
STARTCHAR 3e
ENCODING 62
SWIDTH 480 0
DWIDTH 9 0
BBX 9 18 0 -2
BITMAP
0000
0000
4000
2000
1000
0800
0400
0200
0100
0200
0400
0800
1000
2000
4000
0000
0000
0000
ENDCHAR
STARTCHAR 3f
ENCODING 63
SWIDTH 480 0
DWIDTH 9 0
BBX 9 18 0 -2
BITMAP
0000
1c00
2200
4100
4100
4100
0100
0200
0400
0800
0800
0800
0000
0000
0000
0800
0800
0000
ENDCHAR
STARTCHAR 40
ENCODING 64
SWIDTH 480 0
DWIDTH 9 0
BBX 9 18 0 -2
BITMAP
0000
0000
1c00
2200
4100
4100
9c80
a280
a280
a280
a280
9d80
4000
4100
2200
1c00
0000
0000
ENDCHAR
STARTCHAR 41
ENCODING 65
SWIDTH 480 0
DWIDTH 9 0
BBX 9 18 0 -2
BITMAP
0800
0800
1400
1400
1400
2200
2200
2200
4100
4100
7f00
4100
8080
8080
8080
8080
0000
0000
ENDCHAR
STARTCHAR 42
ENCODING 66
SWIDTH 480 0
DWIDTH 9 0
BBX 9 18 0 -2
BITMAP
0000
f800
8400
8200
8200
8200
8200
8400
fc00
8200
8100
8100
8100
8100
8200
fc00
0000
0000
ENDCHAR
STARTCHAR 43
ENCODING 67
SWIDTH 480 0
DWIDTH 9 0
BBX 9 18 0 -2
BITMAP
0000
3c00
4200
4200
8100
8000
8000
8000
8000
8000
8000
8000
8100
4200
4200
3c00
0000
0000
ENDCHAR
STARTCHAR 44
ENCODING 68
SWIDTH 480 0
DWIDTH 9 0
BBX 9 18 0 -2
BITMAP
0000
f000
8c00
8200
8200
8100
8100
8100
8100
8100
8100
8100
8200
8200
8c00
f000
0000
0000
ENDCHAR
STARTCHAR 45
ENCODING 69
SWIDTH 480 0
DWIDTH 9 0
BBX 9 18 0 -2
BITMAP
0000
ff00
8000
8000
8000
8000
8000
8000
fe00
8000
8000
8000
8000
8000
8000
ff00
0000
0000
ENDCHAR
STARTCHAR 46
ENCODING 70
SWIDTH 480 0
DWIDTH 9 0
BBX 9 18 0 -2
BITMAP
0000
ff00
8000
8000
8000
8000
8000
8000
fe00
8000
8000
8000
8000
8000
8000
8000
0000
0000
ENDCHAR
STARTCHAR 47
ENCODING 71
SWIDTH 480 0
DWIDTH 9 0
BBX 9 18 0 -2
BITMAP
0000
1c00
2200
4100
4000
8000
8000
8000
8f00
8100
8100
8100
4100
4100
2300
1d00
0000
0000
ENDCHAR
STARTCHAR 48
ENCODING 72
SWIDTH 480 0
DWIDTH 9 0
BBX 9 18 0 -2
BITMAP
0000
8100
8100
8100
8100
8100
8100
8100
ff00
8100
8100
8100
8100
8100
8100
8100
0000
0000
ENDCHAR
STARTCHAR 49
ENCODING 73
SWIDTH 480 0
DWIDTH 9 0
BBX 9 18 0 -2
BITMAP
0000
3e00
0800
0800
0800
0800
0800
0800
0800
0800
0800
0800
0800
0800
0800
3e00
0000
0000
ENDCHAR
STARTCHAR 4a
ENCODING 74
SWIDTH 480 0
DWIDTH 9 0
BBX 9 18 0 -2
BITMAP
0000
0100
0100
0100
0100
0100
0100
0100
0100
0100
0100
0100
4100
4100
2200
1c00
0000
0000
ENDCHAR
STARTCHAR 4b
ENCODING 75
SWIDTH 480 0
DWIDTH 9 0
BBX 9 18 0 -2
BITMAP
0000
8100
8200
8400
8400
8800
9000
b000
c800
8800
8400
8400
8200
8200
8100
8100
0000
0000
ENDCHAR
STARTCHAR 4c
ENCODING 76
SWIDTH 480 0
DWIDTH 9 0
BBX 9 18 0 -2
BITMAP
0000
8000
8000
8000
8000
8000
8000
8000
8000
8000
8000
8000
8000
8000
8000
ff00
0000
0000
ENDCHAR
STARTCHAR 4d
ENCODING 77
SWIDTH 480 0
DWIDTH 9 0
BBX 9 18 0 -2
BITMAP
0000
8100
8100
8100
c300
c300
c300
c300
a500
a500
a500
a500
9900
9900
9900
9900
0000
0000
ENDCHAR
STARTCHAR 4e
ENCODING 78
SWIDTH 480 0
DWIDTH 9 0
BBX 9 18 0 -2
BITMAP
0000
8100
c100
c100
a100
a100
9100
9100
8900
8900
8900
8500
8500
8300
8300
8100
0000
0000
ENDCHAR
STARTCHAR 4f
ENCODING 79
SWIDTH 480 0
DWIDTH 9 0
BBX 9 18 0 -2
BITMAP
0000
3c00
4200
8100
8100
8100
8100
8100
8100
8100
8100
8100
8100
8100
4200
3c00
0000
0000
ENDCHAR
STARTCHAR 50
ENCODING 80
SWIDTH 480 0
DWIDTH 9 0
BBX 9 18 0 -2
BITMAP
0000
fc00
8200
8100
8100
8100
8100
8200
fc00
8000
8000
8000
8000
8000
8000
8000
0000
0000
ENDCHAR
STARTCHAR 51
ENCODING 81
SWIDTH 480 0
DWIDTH 9 0
BBX 9 18 0 -2
BITMAP
0000
3c00
4200
4200
8100
8100
8100
8100
8100
8100
8100
bd00
c300
4200
4200
3c00
0400
0300
ENDCHAR
STARTCHAR 52
ENCODING 82
SWIDTH 480 0
DWIDTH 9 0
BBX 9 18 0 -2
BITMAP
0000
fc00
8200
8100
8100
8100
8100
8200
fc00
8400
8400
8200
8200
8200
8100
8100
0000
0000
ENDCHAR
STARTCHAR 53
ENCODING 83
SWIDTH 480 0
DWIDTH 9 0
BBX 9 18 0 -2
BITMAP
0000
3c00
4200
8100
8100
8100
8000
6000
1c00
0200
0100
8100
8100
8100
4200
3c00
0000
0000
ENDCHAR
STARTCHAR 54
ENCODING 84
SWIDTH 480 0
DWIDTH 9 0
BBX 9 18 0 -2
BITMAP
0000
ff80
0800
0800
0800
0800
0800
0800
0800
0800
0800
0800
0800
0800
0800
0800
0000
0000
ENDCHAR
STARTCHAR 55
ENCODING 85
SWIDTH 480 0
DWIDTH 9 0
BBX 9 18 0 -2
BITMAP
0000
8100
8100
8100
8100
8100
8100
8100
8100
8100
8100
8100
8100
4200
4200
3c00
0000
0000
ENDCHAR
STARTCHAR 56
ENCODING 86
SWIDTH 480 0
DWIDTH 9 0
BBX 9 18 0 -2
BITMAP
0000
8100
8100
8100
8100
4200
4200
4200
4200
2400
2400
2400
2400
1800
1800
1800
0000
0000
ENDCHAR
STARTCHAR 57
ENCODING 87
SWIDTH 480 0
DWIDTH 9 0
BBX 9 18 0 -2
BITMAP
0000
8880
8880
8880
8880
8880
5500
5500
5500
5500
5500
2200
2200
2200
2200
2200
0000
0000
ENDCHAR
STARTCHAR 58
ENCODING 88
SWIDTH 480 0
DWIDTH 9 0
BBX 9 18 0 -2
BITMAP
0000
8100
8100
4200
4200
2400
2400
1800
1800
1800
2400
2400
4200
4200
8100
8100
0000
0000
ENDCHAR
STARTCHAR 59
ENCODING 89
SWIDTH 480 0
DWIDTH 9 0
BBX 9 18 0 -2
BITMAP
0000
8200
8200
8200
4400
4400
4400
2800
2800
2800
1000
1000
1000
1000
1000
1000
0000
0000
ENDCHAR
STARTCHAR 5a
ENCODING 90
SWIDTH 480 0
DWIDTH 9 0
BBX 9 18 0 -2
BITMAP
0000
ff00
0100
0200
0400
0400
0800
0800
1000
1000
2000
2000
4000
4000
8000
ff00
0000
0000
ENDCHAR
STARTCHAR 5b
ENCODING 91
SWIDTH 480 0
DWIDTH 9 0
BBX 9 18 0 -2
BITMAP
1f00
1000
1000
1000
1000
1000
1000
1000
1000
1000
1000
1000
1000
1000
1000
1000
1f00
0000
ENDCHAR
STARTCHAR 5c
ENCODING 92
SWIDTH 480 0
DWIDTH 9 0
BBX 9 18 0 -2
BITMAP
4100
4100
4100
2200
2200
2200
1400
1400
7f00
0800
7f00
0800
0800
0800
0800
0800
0000
0000
ENDCHAR
STARTCHAR 5d
ENCODING 93
SWIDTH 480 0
DWIDTH 9 0
BBX 9 18 0 -2
BITMAP
7c00
0400
0400
0400
0400
0400
0400
0400
0400
0400
0400
0400
0400
0400
0400
0400
7c00
0000
ENDCHAR
STARTCHAR 5e
ENCODING 94
SWIDTH 480 0
DWIDTH 9 0
BBX 9 18 0 -2
BITMAP
0000
1800
2400
4200
8100
0000
0000
0000
0000
0000
0000
0000
0000
0000
0000
0000
0000
0000
ENDCHAR
STARTCHAR 5f
ENCODING 95
SWIDTH 480 0
DWIDTH 9 0
BBX 9 18 0 -2
BITMAP
0000
0000
0000
0000
0000
0000
0000
0000
0000
0000
0000
0000
0000
0000
0000
ff80
0000
0000
ENDCHAR
STARTCHAR 60
ENCODING 96
SWIDTH 480 0
DWIDTH 9 0
BBX 9 18 0 -2
BITMAP
3000
3000
2000
2000
1000
0000
0000
0000
0000
0000
0000
0000
0000
0000
0000
0000
0000
0000
ENDCHAR
STARTCHAR 61
ENCODING 97
SWIDTH 480 0
DWIDTH 9 0
BBX 9 18 0 -2
BITMAP
0000
0000
0000
0000
0000
0000
0000
3e00
4100
0100
0100
3f00
4100
4100
4300
3d00
0000
0000
ENDCHAR
STARTCHAR 62
ENCODING 98
SWIDTH 480 0
DWIDTH 9 0
BBX 9 18 0 -2
BITMAP
0000
8000
8000
8000
8000
8000
8000
bc00
c200
8100
8100
8100
8100
8100
c200
bc00
0000
0000
ENDCHAR
STARTCHAR 63
ENCODING 99
SWIDTH 480 0
DWIDTH 9 0
BBX 9 18 0 -2
BITMAP
0000
0000
0000
0000
0000
0000
0000
3c00
4200
8100
8000
8000
8000
8100
4200
3c00
0000
0000
ENDCHAR
STARTCHAR 64
ENCODING 100
SWIDTH 480 0
DWIDTH 9 0
BBX 9 18 0 -2
BITMAP
0000
0100
0100
0100
0100
0100
0100
3d00
4300
8100
8100
8100
8100
8100
4300
3d00
0000
0000
ENDCHAR
STARTCHAR 65
ENCODING 101
SWIDTH 480 0
DWIDTH 9 0
BBX 9 18 0 -2
BITMAP
0000
0000
0000
0000
0000
0000
0000
3c00
4200
8100
8100
ff00
8000
8100
4200
3c00
0000
0000
ENDCHAR
STARTCHAR 66
ENCODING 102
SWIDTH 480 0
DWIDTH 9 0
BBX 9 18 0 -2
BITMAP
0000
0000
0600
0900
1000
1000
1000
7e00
1000
1000
1000
1000
1000
1000
1000
1000
0000
0000
ENDCHAR
STARTCHAR 67
ENCODING 103
SWIDTH 480 0
DWIDTH 9 0
BBX 9 18 0 -2
BITMAP
0000
0000
0000
0000
0000
0000
0000
1d00
2200
2200
2200
1c00
2000
3c00
4200
4100
4100
3e00
ENDCHAR
STARTCHAR 68
ENCODING 104
SWIDTH 480 0
DWIDTH 9 0
BBX 9 18 0 -2
BITMAP
0000
4000
4000
4000
4000
4000
4000
5c00
6200
4100
4100
4100
4100
4100
4100
4100
0000
0000
ENDCHAR
STARTCHAR 69
ENCODING 105
SWIDTH 480 0
DWIDTH 9 0
BBX 9 18 0 -2
BITMAP
0000
0000
0000
0800
0800
0000
0000
1800
0800
0800
0800
0800
0800
0800
0800
0800
0000
0000
ENDCHAR
STARTCHAR 6a
ENCODING 106
SWIDTH 480 0
DWIDTH 9 0
BBX 9 18 0 -2
BITMAP
0000
0000
0000
0200
0200
0000
0000
0200
0200
0200
0200
0200
0200
0200
0200
0200
4400
3800
ENDCHAR
STARTCHAR 6b
ENCODING 107
SWIDTH 480 0
DWIDTH 9 0
BBX 9 18 0 -2
BITMAP
0000
4000
4000
4000
4000
4000
4000
4200
4400
4800
5000
7000
4800
4400
4200
4100
0000
0000
ENDCHAR
STARTCHAR 6c
ENCODING 108
SWIDTH 480 0
DWIDTH 9 0
BBX 9 18 0 -2
BITMAP
0000
3800
0800
0800
0800
0800
0800
0800
0800
0800
0800
0800
0800
0800
0800
0800
0000
0000
ENDCHAR
STARTCHAR 6d
ENCODING 109
SWIDTH 480 0
DWIDTH 9 0
BBX 9 18 0 -2
BITMAP
0000
0000
0000
0000
0000
0000
0000
a600
d900
9100
9100
9100
9100
9100
9100
9100
0000
0000
ENDCHAR
STARTCHAR 6e
ENCODING 110
SWIDTH 480 0
DWIDTH 9 0
BBX 9 18 0 -2
BITMAP
0000
0000
0000
0000
0000
0000
0000
4c00
5200
6100
4100
4100
4100
4100
4100
4100
0000
0000
ENDCHAR
STARTCHAR 6f
ENCODING 111
SWIDTH 480 0
DWIDTH 9 0
BBX 9 18 0 -2
BITMAP
0000
0000
0000
0000
0000
0000
0000
3c00
4200
8100
8100
8100
8100
8100
4200
3c00
0000
0000
ENDCHAR
STARTCHAR 70
ENCODING 112
SWIDTH 480 0
DWIDTH 9 0
BBX 9 18 0 -2
BITMAP
0000
0000
0000
0000
0000
0000
0000
bc00
c200
8100
8100
8100
8100
c200
bc00
8000
8000
8000
ENDCHAR
STARTCHAR 71
ENCODING 113
SWIDTH 480 0
DWIDTH 9 0
BBX 9 18 0 -2
BITMAP
0000
0000
0000
0000
0000
0000
0000
3d00
4300
8100
8100
8100
8100
4300
3d00
0100
0100
0100
ENDCHAR
STARTCHAR 72
ENCODING 114
SWIDTH 480 0
DWIDTH 9 0
BBX 9 18 0 -2
BITMAP
0000
0000
0000
0000
0000
0000
0000
4c00
5200
6000
4000
4000
4000
4000
4000
4000
0000
0000
ENDCHAR
STARTCHAR 73
ENCODING 115
SWIDTH 480 0
DWIDTH 9 0
BBX 9 18 0 -2
BITMAP
0000
0000
0000
0000
0000
0000
0000
3e00
4100
4100
4000
3e00
0100
4100
4100
3e00
0000
0000
ENDCHAR
STARTCHAR 74
ENCODING 116
SWIDTH 480 0
DWIDTH 9 0
BBX 9 18 0 -2
BITMAP
0000
0000
0000
0000
1000
1000
1000
7e00
1000
1000
1000
1000
1000
1000
1100
0e00
0000
0000
ENDCHAR
STARTCHAR 75
ENCODING 117
SWIDTH 480 0
DWIDTH 9 0
BBX 9 18 0 -2
BITMAP
0000
0000
0000
0000
0000
0000
0000
4100
4100
4100
4100
4100
4100
4100
2300
1d00
0000
0000
ENDCHAR
STARTCHAR 76
ENCODING 118
SWIDTH 480 0
DWIDTH 9 0
BBX 9 18 0 -2
BITMAP
0000
0000
0000
0000
0000
0000
0000
4100
4100
4100
2200
2200
1400
1400
0800
0800
0000
0000
ENDCHAR
STARTCHAR 77
ENCODING 119
SWIDTH 480 0
DWIDTH 9 0
BBX 9 18 0 -2
BITMAP
0000
0000
0000
0000
0000
0000
0000
4900
4900
4900
5500
5500
5500
2200
2200
2200
0000
0000
ENDCHAR
STARTCHAR 78
ENCODING 120
SWIDTH 480 0
DWIDTH 9 0
BBX 9 18 0 -2
BITMAP
0000
0000
0000
0000
0000
0000
0000
4100
2200
2200
1400
0800
1400
2200
2200
4100
0000
0000
ENDCHAR
STARTCHAR 79
ENCODING 121
SWIDTH 480 0
DWIDTH 9 0
BBX 9 18 0 -2
BITMAP
0000
0000
0000
0000
0000
0000
0000
8100
4200
4200
2400
2400
1800
0800
1000
1000
2000
c000
ENDCHAR
STARTCHAR 7a
ENCODING 122
SWIDTH 480 0
DWIDTH 9 0
BBX 9 18 0 -2
BITMAP
0000
0000
0000
0000
0000
0000
0000
ff00
0200
0400
0800
1000
2000
4000
8000
ff00
0000
0000
ENDCHAR
STARTCHAR 7b
ENCODING 123
SWIDTH 480 0
DWIDTH 9 0
BBX 9 18 0 -2
BITMAP
0200
0400
0800
0800
0800
0800
0800
0800
3000
0800
0800
0800
0800
0800
0800
0800
0400
0200
ENDCHAR
STARTCHAR 7c
ENCODING 124
SWIDTH 480 0
DWIDTH 9 0
BBX 9 18 0 -2
BITMAP
0800
0800
0800
0800
0800
0800
0800
0800
0800
0800
0800
0800
0800
0800
0800
0800
0800
0800
ENDCHAR
STARTCHAR 7d
ENCODING 125
SWIDTH 480 0
DWIDTH 9 0
BBX 9 18 0 -2
BITMAP
4000
2000
1000
1000
1000
1000
1000
1000
0c00
1000
1000
1000
1000
1000
1000
1000
2000
4000
ENDCHAR
STARTCHAR 7e
ENCODING 126
SWIDTH 480 0
DWIDTH 9 0
BBX 9 18 0 -2
BITMAP
ff80
0000
0000
0000
0000
0000
0000
0000
0000
0000
0000
0000
0000
0000
0000
0000
0000
0000
ENDCHAR
STARTCHAR   a1
ENCODING 161
SWIDTH 480 0
DWIDTH 9 0
BBX 9 18 0 -2
BITMAP
0000
0000
0000
0000
0000
0000
0000
0000
0000
0000
0000
0000
0000
3000
4800
4800
3000
0000
ENDCHAR
STARTCHAR   a2
ENCODING 162
SWIDTH 480 0
DWIDTH 9 0
BBX 9 18 0 -2
BITMAP
0000
3f00
2000
2000
2000
2000
2000
2000
2000
2000
2000
0000
0000
0000
0000
0000
0000
0000
ENDCHAR
STARTCHAR   a3
ENCODING 163
SWIDTH 480 0
DWIDTH 9 0
BBX 9 18 0 -2
BITMAP
0000
0000
0000
0000
0000
0000
0000
0800
0800
0800
0800
0800
0800
0800
0800
0800
f800
0000
ENDCHAR
STARTCHAR   a4
ENCODING 164
SWIDTH 480 0
DWIDTH 9 0
BBX 9 18 0 -2
BITMAP
0000
0000
0000
0000
0000
0000
0000
0000
0000
0000
0000
0000
0000
0000
2000
1000
1000
0000
ENDCHAR
STARTCHAR   a5
ENCODING 165
SWIDTH 480 0
DWIDTH 9 0
BBX 9 18 0 -2
BITMAP
0000
0000
0000
0000
0000
0000
0000
0000
1800
1800
0000
0000
0000
0000
0000
0000
0000
0000
ENDCHAR
STARTCHAR   a6
ENCODING 166
SWIDTH 480 0
DWIDTH 9 0
BBX 9 18 0 -2
BITMAP
0000
0000
7f00
0100
0100
0100
0100
7f00
0100
0200
0200
0400
0800
1000
2000
4000
0000
0000
ENDCHAR
STARTCHAR   a7
ENCODING 167
SWIDTH 480 0
DWIDTH 9 0
BBX 9 18 0 -2
BITMAP
0000
0000
0000
0000
0000
0000
0000
0000
7f00
0100
0a00
0c00
0800
0800
1000
1000
2000
0000
ENDCHAR
STARTCHAR   a8
ENCODING 168
SWIDTH 480 0
DWIDTH 9 0
BBX 9 18 0 -2
BITMAP
0000
0000
0000
0000
0000
0000
0000
0600
0400
0800
1800
2800
4800
0800
0800
0800
0800
0000
ENDCHAR
STARTCHAR   a9
ENCODING 169
SWIDTH 480 0
DWIDTH 9 0
BBX 9 18 0 -2
BITMAP
0000
0000
0000
0000
0000
0000
0000
0800
0800
7f00
4100
4100
4100
0200
0400
0800
1000
0000
ENDCHAR
STARTCHAR   aa
ENCODING 170
SWIDTH 480 0
DWIDTH 9 0
BBX 9 18 0 -2
BITMAP
0000
0000
0000
0000
0000
0000
0000
0000
0000
3e00
0800
0800
0800
0800
0800
7f00
0000
0000
ENDCHAR
STARTCHAR   ab
ENCODING 171
SWIDTH 480 0
DWIDTH 9 0
BBX 9 18 0 -2
BITMAP
0000
0000
0000
0000
0000
0000
0000
0800
0800
ff00
0800
0800
1800
2800
4800
8800
1800
0000
ENDCHAR
STARTCHAR   ac
ENCODING 172
SWIDTH 480 0
DWIDTH 9 0
BBX 9 18 0 -2
BITMAP
0000
0000
0000
0000
0000
0000
0000
0000
0000
2000
2700
3900
5200
0800
0800
0400
0000
0000
ENDCHAR
STARTCHAR   ad
ENCODING 173
SWIDTH 480 0
DWIDTH 9 0
BBX 9 18 0 -2
BITMAP
0000
0000
0000
0000
0000
0000
0000
0000
0000
7c00
0400
0400
0400
0400
ff00
0000
0000
0000
ENDCHAR
STARTCHAR   ae
ENCODING 174
SWIDTH 480 0
DWIDTH 9 0
BBX 9 18 0 -2
BITMAP
0000
0000
0000
0000
0000
0000
0000
0000
7e00
0200
0200
7e00
0200
0200
0200
7e00
0000
0000
ENDCHAR
STARTCHAR   af
ENCODING 175
SWIDTH 480 0
DWIDTH 9 0
BBX 9 18 0 -2
BITMAP
0000
0000
0000
0000
0000
0000
0000
1100
4900
2900
2100
0200
0200
0400
0800
1000
0000
0000
ENDCHAR
STARTCHAR   b0
ENCODING 176
SWIDTH 480 0
DWIDTH 9 0
BBX 9 18 0 -2
BITMAP
0000
0000
0000
0000
0000
0000
0000
3e00
0000
0000
0000
0000
0000
0000
0000
0000
0000
0000
ENDCHAR
STARTCHAR   b1
ENCODING 177
SWIDTH 480 0
DWIDTH 9 0
BBX 9 18 0 -2
BITMAP
0000
0000
ff00
0100
0100
0100
1100
1200
1200
1400
1000
2000
2000
2000
4000
8000
0000
0000
ENDCHAR
STARTCHAR   b2
ENCODING 178
SWIDTH 480 0
DWIDTH 9 0
BBX 9 18 0 -2
BITMAP
0000
0100
0100
0200
0200
0400
0800
1800
2800
4800
8800
0800
0800
0800
0800
0800
0000
0000
ENDCHAR
STARTCHAR   b3
ENCODING 179
SWIDTH 480 0
DWIDTH 9 0
BBX 9 18 0 -2
BITMAP
0000
1000
1000
1000
ff00
8100
8100
8100
8100
0100
0200
0200
0400
0800
1000
2000
0000
0000
ENDCHAR
STARTCHAR   b4
ENCODING 180
SWIDTH 480 0
DWIDTH 9 0
BBX 9 18 0 -2
BITMAP
0000
0000
0000
7f00
0800
0800
0800
0800
0800
0800
0800
0800
0800
0800
ff80
0000
0000
0000
ENDCHAR
STARTCHAR   b5
ENCODING 181
SWIDTH 480 0
DWIDTH 9 0
BBX 9 18 0 -2
BITMAP
0000
0000
0800
0800
ff00
0800
0800
1800
1800
2800
2800
4800
8800
8800
0800
0800
0000
0000
ENDCHAR
STARTCHAR   b6
ENCODING 182
SWIDTH 480 0
DWIDTH 9 0
BBX 9 18 0 -2
BITMAP
0000
1000
1000
1000
ff00
1100
1100
1100
1100
1100
2100
2100
2100
2100
4100
8600
0000
0000
ENDCHAR
STARTCHAR   b7
ENCODING 183
SWIDTH 480 0
DWIDTH 9 0
BBX 9 18 0 -2
BITMAP
0000
0000
2000
2000
2200
fc00
1000
1000
1000
0f00
f800
0800
0800
0400
0400
0400
0000
0000
ENDCHAR
STARTCHAR   b8
ENCODING 184
SWIDTH 480 0
DWIDTH 9 0
BBX 9 18 0 -2
BITMAP
0000
0000
2000
3f00
2100
2100
2100
4100
4200
8200
0400
0400
0800
1000
2000
4000
0000
0000
ENDCHAR
STARTCHAR   b9
ENCODING 185
SWIDTH 480 0
DWIDTH 9 0
BBX 9 18 0 -2
BITMAP
0000
0000
4000
4000
7f00
4400
4400
4400
8400
0400
0400
0800
0800
1000
2000
4000
0000
0000
ENDCHAR
STARTCHAR   ba
ENCODING 186
SWIDTH 480 0
DWIDTH 9 0
BBX 9 18 0 -2
BITMAP
0000
0000
0000
ff00
0100
0100
0100
0100
0100
0100
0100
0100
0100
ff00
0100
0000
0000
0000
ENDCHAR
STARTCHAR   bb
ENCODING 187
SWIDTH 480 0
DWIDTH 9 0
BBX 9 18 0 -2
BITMAP
0000
0000
2200
2200
2200
2200
ff00
2200
2200
2200
2200
0200
0400
0800
1000
2000
0000
0000
ENDCHAR
STARTCHAR   bc
ENCODING 188
SWIDTH 480 0
DWIDTH 9 0
BBX 9 18 0 -2
BITMAP
0000
0000
6000
1000
0000
0000
0000
c100
2100
0200
0200
0400
0800
1000
2000
c000
0000
0000
ENDCHAR
STARTCHAR   bd
ENCODING 189
SWIDTH 480 0
DWIDTH 9 0
BBX 9 18 0 -2
BITMAP
0000
0000
0000
ff00
0100
0100
0200
0200
0400
0400
0c00
1200
1200
2100
4100
8080
0000
0000
ENDCHAR
STARTCHAR   be
ENCODING 190
SWIDTH 480 0
DWIDTH 9 0
BBX 9 18 0 -2
BITMAP
0000
0000
4000
4000
4000
4000
4f00
7100
c200
4400
4000
4000
4000
4000
4000
3f00
0000
0000
ENDCHAR
STARTCHAR   bf
ENCODING 191
SWIDTH 480 0
DWIDTH 9 0
BBX 9 18 0 -2
BITMAP
0000
0000
0100
8100
8100
4100
4100
4100
0200
0200
0400
0400
0800
1000
2000
4000
0000
0000
ENDCHAR
STARTCHAR   c0
ENCODING 192
SWIDTH 480 0
DWIDTH 9 0
BBX 9 18 0 -2
BITMAP
0000
2000
2000
3f00
2100
2100
4100
6100
5200
8a00
0400
0400
0800
1000
2000
4000
0000
0000
ENDCHAR
STARTCHAR   c1
ENCODING 193
SWIDTH 480 0
DWIDTH 9 0
BBX 9 18 0 -2
BITMAP
0000
0100
0600
7800
0800
0800
0800
ff80
0800
0800
0800
0800
0800
1000
2000
4000
0000
0000
ENDCHAR
STARTCHAR   c2
ENCODING 194
SWIDTH 480 0
DWIDTH 9 0
BBX 9 18 0 -2
BITMAP
0000
0000
2000
2100
a100
9100
9100
4100
4200
0200
0400
0400
0800
1000
2000
4000
0000
0000
ENDCHAR
STARTCHAR   c3
ENCODING 195
SWIDTH 480 0
DWIDTH 9 0
BBX 9 18 0 -2
BITMAP
0000
0000
7e00
0000
0000
0000
0000
ff00
0800
0800
0800
0800
0800
1000
2000
4000
0000
0000
ENDCHAR
STARTCHAR   c4
ENCODING 196
SWIDTH 480 0
DWIDTH 9 0
BBX 9 18 0 -2
BITMAP
0000
2000
2000
2000
2000
3000
3800
2400
2200
2100
2100
2000
2000
2000
2000
2000
0000
0000
ENDCHAR
STARTCHAR   c5
ENCODING 197
SWIDTH 480 0
DWIDTH 9 0
BBX 9 18 0 -2
BITMAP
0000
0000
0800
0800
0800
ff00
0800
0800
0800
0800
0800
0800
1000
1000
2000
4000
0000
0000
ENDCHAR
STARTCHAR   c6
ENCODING 198
SWIDTH 480 0
DWIDTH 9 0
BBX 9 18 0 -2
BITMAP
0000
0000
0000
7e00
0000
0000
0000
0000
0000
0000
0000
0000
0000
ff00
0000
0000
0000
0000
ENDCHAR
STARTCHAR   c7
ENCODING 199
SWIDTH 480 0
DWIDTH 9 0
BBX 9 18 0 -2
BITMAP
0000
0000
7f00
0100
0100
0100
2200
1200
0c00
0400
0a00
1100
1000
2000
4000
8000
0000
0000
ENDCHAR
STARTCHAR   c8
ENCODING 200
SWIDTH 480 0
DWIDTH 9 0
BBX 9 18 0 -2
BITMAP
0000
1000
1000
1000
fe00
0200
0200
0400
0800
1400
3200
5100
9000
1000
1000
1000
0000
0000
ENDCHAR
STARTCHAR   c9
ENCODING 201
SWIDTH 480 0
DWIDTH 9 0
BBX 9 18 0 -2
BITMAP
0000
0100
0100
0100
0200
0200
0200
0200
0400
0400
0800
1000
2000
4000
8000
0000
0000
0000
ENDCHAR
STARTCHAR   ca
ENCODING 202
SWIDTH 480 0
DWIDTH 9 0
BBX 9 18 0 -2
BITMAP
0000
0000
0000
0c00
0400
2200
2200
2200
2100
2100
2100
2100
4100
4100
4100
8100
0000
0000
ENDCHAR
STARTCHAR   cb
ENCODING 203
SWIDTH 480 0
DWIDTH 9 0
BBX 9 18 0 -2
BITMAP
0000
4000
4000
4000
4000
4100
4e00
7000
4000
4000
4000
4000
4000
4000
4000
3f00
0000
0000
ENDCHAR
STARTCHAR   cc
ENCODING 204
SWIDTH 480 0
DWIDTH 9 0
BBX 9 18 0 -2
BITMAP
0000
0000
ff00
0100
0100
0100
0100
0100
0200
0200
0400
0400
0800
1000
2000
4000
0000
0000
ENDCHAR
STARTCHAR   cd
ENCODING 205
SWIDTH 480 0
DWIDTH 9 0
BBX 9 18 0 -2
BITMAP
0000
0000
0000
2000
2000
3000
5000
4800
8400
8400
0200
0100
0080
0000
0000
0000
0000
0000
ENDCHAR
STARTCHAR   ce
ENCODING 206
SWIDTH 480 0
DWIDTH 9 0
BBX 9 18 0 -2
BITMAP
0000
1000
1000
1000
1000
ff00
1000
1000
5400
5200
5200
5200
9100
9100
1000
3000
0000
0000
ENDCHAR
STARTCHAR   cf
ENCODING 207
SWIDTH 480 0
DWIDTH 9 0
BBX 9 18 0 -2
BITMAP
0000
0000
0000
ff00
0100
0100
0100
0200
0200
4400
2800
1800
0800
0400
0200
0000
0000
0000
ENDCHAR
STARTCHAR   d0
ENCODING 208
SWIDTH 480 0
DWIDTH 9 0
BBX 9 18 0 -2
BITMAP
0000
0000
3000
0c00
0200
0000
0000
3000
0c00
0200
0000
0000
7000
0c00
0200
0100
0000
0000
ENDCHAR
STARTCHAR   d1
ENCODING 209
SWIDTH 480 0
DWIDTH 9 0
BBX 9 18 0 -2
BITMAP
0000
0000
1000
1000
1000
1000
1000
1000
2000
2200
2200
2100
4700
9900
e100
0000
0000
0000
ENDCHAR
STARTCHAR   d2
ENCODING 210
SWIDTH 480 0
DWIDTH 9 0
BBX 9 18 0 -2
BITMAP
0000
0200
0200
0200
0200
0200
6200
1400
0c00
0600
0900
1000
1000
2000
4000
8000
0000
0000
ENDCHAR
STARTCHAR   d3
ENCODING 211
SWIDTH 480 0
DWIDTH 9 0
BBX 9 18 0 -2
BITMAP
0000
0000
0000
ff00
2000
2000
2000
2000
ff00
2000
2000
2000
2000
2000
1000
0f00
0000
0000
ENDCHAR
STARTCHAR   d4
ENCODING 212
SWIDTH 480 0
DWIDTH 9 0
BBX 9 18 0 -2
BITMAP
0000
2000
2000
2000
2780
1880
3080
d100
1100
0a00
0800
0800
0400
0400
0200
0200
0000
0000
ENDCHAR
STARTCHAR   d5
ENCODING 213
SWIDTH 480 0
DWIDTH 9 0
BBX 9 18 0 -2
BITMAP
0000
0000
0000
0000
0000
7e00
0200
0200
0200
0200
0200
0200
0200
0200
ff80
0000
0000
0000
ENDCHAR
STARTCHAR   d6
ENCODING 214
SWIDTH 480 0
DWIDTH 9 0
BBX 9 18 0 -2
BITMAP
0000
0000
ff00
0100
0100
0100
0100
0100
7f00
0100
0100
0100
0100
0100
0100
ff00
0000
0000
ENDCHAR
STARTCHAR   d7
ENCODING 215
SWIDTH 480 0
DWIDTH 9 0
BBX 9 18 0 -2
BITMAP
0000
0000
7e00
0000
0000
0000
0000
ff00
0100
0100
0200
0200
0400
0800
1000
6000
0000
0000
ENDCHAR
STARTCHAR   d8
ENCODING 216
SWIDTH 480 0
DWIDTH 9 0
BBX 9 18 0 -2
BITMAP
0000
0000
4200
4200
4200
4200
4200
4200
4200
4200
0200
0400
0400
0800
1000
2000
0000
0000
ENDCHAR
STARTCHAR   d9
ENCODING 217
SWIDTH 480 0
DWIDTH 9 0
BBX 9 18 0 -2
BITMAP
0000
0000
0000
0800
2800
2800
2800
2800
2800
2880
2880
4900
4900
4a00
4c00
8800
0000
0000
ENDCHAR
STARTCHAR   da
ENCODING 218
SWIDTH 480 0
DWIDTH 9 0
BBX 9 18 0 -2
BITMAP
0000
0000
4000
4000
4000
4000
4000
4000
4000
4100
4200
4200
4400
4800
5000
6000
0000
0000
ENDCHAR
STARTCHAR   db
ENCODING 219
SWIDTH 480 0
DWIDTH 9 0
BBX 9 18 0 -2
BITMAP
0000
0000
0000
ff00
8100
8100
8100
8100
8100
8100
8100
8100
8100
ff00
8100
0000
0000
0000
ENDCHAR
STARTCHAR   dc
ENCODING 220
SWIDTH 480 0
DWIDTH 9 0
BBX 9 18 0 -2
BITMAP
0000
0000
0000
ff00
8100
8100
8100
8100
8100
0100
0200
0200
0400
0800
1000
2000
0000
0000
ENDCHAR
STARTCHAR   dd
ENCODING 221
SWIDTH 480 0
DWIDTH 9 0
BBX 9 18 0 -2
BITMAP
0000
0000
0000
0000
c000
2000
1100
0100
0100
0200
0200
0400
0800
1000
2000
c000
0000
0000
ENDCHAR
STARTCHAR   de
ENCODING 222
SWIDTH 480 0
DWIDTH 9 0
BBX 9 18 0 -2
BITMAP
0000
5000
2800
2800
0000
0000
0000
0000
0000
0000
0000
0000
0000
0000
0000
0000
0000
0000
ENDCHAR
STARTCHAR   df
ENCODING 223
SWIDTH 480 0
DWIDTH 9 0
BBX 9 18 0 -2
BITMAP
0000
3000
4800
4800
3000
0000
0000
0000
0000
0000
0000
0000
0000
0000
0000
0000
0000
0000
ENDCHAR
STARTCHAR   e0
ENCODING 224
SWIDTH 480 0
DWIDTH 9 0
BBX 9 18 0 -2
BITMAP
0000
0000
0000
0000
0000
0000
0000
0000
0000
0000
0000
0000
0000
0000
0000
0000
0000
0000
ENDCHAR
STARTCHAR   e1
ENCODING 225
SWIDTH 480 0
DWIDTH 9 0
BBX 9 18 0 -2
BITMAP
0000
0000
0000
0000
0000
0000
0000
0000
0000
0000
0000
0000
0000
0000
0000
0000
0000
0000
ENDCHAR
STARTCHAR   e2
ENCODING 226
SWIDTH 480 0
DWIDTH 9 0
BBX 9 18 0 -2
BITMAP
0000
0000
0000
0000
0000
0000
0000
0000
0000
0000
0000
0000
0000
0000
0000
0000
0000
0000
ENDCHAR
STARTCHAR   e3
ENCODING 227
SWIDTH 480 0
DWIDTH 9 0
BBX 9 18 0 -2
BITMAP
0000
0000
0000
0000
0000
0000
0000
0000
0000
0000
0000
0000
0000
0000
0000
0000
0000
0000
ENDCHAR
STARTCHAR   e4
ENCODING 228
SWIDTH 480 0
DWIDTH 9 0
BBX 9 18 0 -2
BITMAP
0000
0000
0000
0000
0000
0000
0000
0000
0000
0000
0000
0000
0000
0000
0000
0000
0000
0000
ENDCHAR
STARTCHAR   e5
ENCODING 229
SWIDTH 480 0
DWIDTH 9 0
BBX 9 18 0 -2
BITMAP
0000
0000
0000
0000
0000
0000
0000
0000
0000
0000
0000
0000
0000
0000
0000
0000
0000
0000
ENDCHAR
STARTCHAR   e6
ENCODING 230
SWIDTH 480 0
DWIDTH 9 0
BBX 9 18 0 -2
BITMAP
0000
0000
0000
0000
0000
0000
0000
0000
0000
0000
0000
0000
0000
0000
0000
0000
0000
0000
ENDCHAR
STARTCHAR   e7
ENCODING 231
SWIDTH 480 0
DWIDTH 9 0
BBX 9 18 0 -2
BITMAP
0000
0000
0000
0000
0000
0000
0000
0000
0000
0000
0000
0000
0000
0000
0000
0000
0000
0000
ENDCHAR
STARTCHAR   e8
ENCODING 232
SWIDTH 480 0
DWIDTH 9 0
BBX 9 18 0 -2
BITMAP
0000
0000
0000
0000
0000
0000
0000
0000
0000
0000
0000
0000
0000
0000
0000
0000
0000
0000
ENDCHAR
STARTCHAR   e9
ENCODING 233
SWIDTH 480 0
DWIDTH 9 0
BBX 9 18 0 -2
BITMAP
0000
0000
0000
0000
0000
0000
0000
0000
0000
0000
0000
0000
0000
0000
0000
0000
0000
0000
ENDCHAR
STARTCHAR   ea
ENCODING 234
SWIDTH 480 0
DWIDTH 9 0
BBX 9 18 0 -2
BITMAP
0000
0000
0000
0000
0000
0000
0000
0000
0000
0000
0000
0000
0000
0000
0000
0000
0000
0000
ENDCHAR
STARTCHAR   eb
ENCODING 235
SWIDTH 480 0
DWIDTH 9 0
BBX 9 18 0 -2
BITMAP
0000
0000
0000
0000
0000
0000
0000
0000
0000
0000
0000
0000
0000
0000
0000
0000
0000
0000
ENDCHAR
STARTCHAR   ec
ENCODING 236
SWIDTH 480 0
DWIDTH 9 0
BBX 9 18 0 -2
BITMAP
0000
0000
0000
0000
0000
0000
0000
0000
0000
0000
0000
0000
0000
0000
0000
0000
0000
0000
ENDCHAR
STARTCHAR   ed
ENCODING 237
SWIDTH 480 0
DWIDTH 9 0
BBX 9 18 0 -2
BITMAP
0000
0000
0000
0000
0000
0000
0000
0000
0000
0000
0000
0000
0000
0000
0000
0000
0000
0000
ENDCHAR
STARTCHAR   ee
ENCODING 238
SWIDTH 480 0
DWIDTH 9 0
BBX 9 18 0 -2
BITMAP
0000
0000
0000
0000
0000
0000
0000
0000
0000
0000
0000
0000
0000
0000
0000
0000
0000
0000
ENDCHAR
STARTCHAR   ef
ENCODING 239
SWIDTH 480 0
DWIDTH 9 0
BBX 9 18 0 -2
BITMAP
0000
0000
0000
0000
0000
0000
0000
0000
0000
0000
0000
0000
0000
0000
0000
0000
0000
0000
ENDCHAR
STARTCHAR   f0
ENCODING 240
SWIDTH 480 0
DWIDTH 9 0
BBX 9 18 0 -2
BITMAP
0000
0000
0000
0000
0000
0000
0000
0000
0000
0000
0000
0000
0000
0000
0000
0000
0000
0000
ENDCHAR
STARTCHAR   f1
ENCODING 241
SWIDTH 480 0
DWIDTH 9 0
BBX 9 18 0 -2
BITMAP
0000
0000
0000
0000
0000
0000
0000
0000
0000
0000
0000
0000
0000
0000
0000
0000
0000
0000
ENDCHAR
STARTCHAR   f2
ENCODING 242
SWIDTH 480 0
DWIDTH 9 0
BBX 9 18 0 -2
BITMAP
0000
0000
0000
0000
0000
0000
0000
0000
0000
0000
0000
0000
0000
0000
0000
0000
0000
0000
ENDCHAR
STARTCHAR   f3
ENCODING 243
SWIDTH 480 0
DWIDTH 9 0
BBX 9 18 0 -2
BITMAP
0000
0000
0000
0000
0000
0000
0000
0000
0000
0000
0000
0000
0000
0000
0000
0000
0000
0000
ENDCHAR
STARTCHAR   f4
ENCODING 244
SWIDTH 480 0
DWIDTH 9 0
BBX 9 18 0 -2
BITMAP
0000
0000
0000
0000
0000
0000
0000
0000
0000
0000
0000
0000
0000
0000
0000
0000
0000
0000
ENDCHAR
STARTCHAR   f5
ENCODING 245
SWIDTH 480 0
DWIDTH 9 0
BBX 9 18 0 -2
BITMAP
0000
0000
0000
0000
0000
0000
0000
0000
0000
0000
0000
0000
0000
0000
0000
0000
0000
0000
ENDCHAR
STARTCHAR   f6
ENCODING 246
SWIDTH 480 0
DWIDTH 9 0
BBX 9 18 0 -2
BITMAP
0000
0000
0000
0000
0000
0000
0000
0000
0000
0000
0000
0000
0000
0000
0000
0000
0000
0000
ENDCHAR
STARTCHAR   f7
ENCODING 247
SWIDTH 480 0
DWIDTH 9 0
BBX 9 18 0 -2
BITMAP
0000
0000
0000
0000
0000
0000
0000
0000
0000
0000
0000
0000
0000
0000
0000
0000
0000
0000
ENDCHAR
STARTCHAR   f8
ENCODING 248
SWIDTH 480 0
DWIDTH 9 0
BBX 9 18 0 -2
BITMAP
0000
0000
0000
0000
0000
0000
0000
0000
0000
0000
0000
0000
0000
0000
0000
0000
0000
0000
ENDCHAR
STARTCHAR   f9
ENCODING 249
SWIDTH 480 0
DWIDTH 9 0
BBX 9 18 0 -2
BITMAP
0000
0000
0000
0000
0000
0000
0000
0000
0000
0000
0000
0000
0000
0000
0000
0000
0000
0000
ENDCHAR
STARTCHAR   fa
ENCODING 250
SWIDTH 480 0
DWIDTH 9 0
BBX 9 18 0 -2
BITMAP
0000
0000
0000
0000
0000
0000
0000
0000
0000
0000
0000
0000
0000
0000
0000
0000
0000
0000
ENDCHAR
STARTCHAR   fb
ENCODING 251
SWIDTH 480 0
DWIDTH 9 0
BBX 9 18 0 -2
BITMAP
0000
0000
0000
0000
0000
0000
0000
0000
0000
0000
0000
0000
0000
0000
0000
0000
0000
0000
ENDCHAR
STARTCHAR   fc
ENCODING 252
SWIDTH 480 0
DWIDTH 9 0
BBX 9 18 0 -2
BITMAP
0000
0000
0000
0000
0000
0000
0000
0000
0000
0000
0000
0000
0000
0000
0000
0000
0000
0000
ENDCHAR
STARTCHAR   fd
ENCODING 253
SWIDTH 480 0
DWIDTH 9 0
BBX 9 18 0 -2
BITMAP
0000
0000
0000
0000
0000
0000
0000
0000
0000
0000
0000
0000
0000
0000
0000
0000
0000
0000
ENDCHAR
STARTCHAR   fe
ENCODING 254
SWIDTH 480 0
DWIDTH 9 0
BBX 9 18 0 -2
BITMAP
0000
0000
0000
0000
0000
0000
0000
0000
0000
0000
0000
0000
0000
0000
0000
0000
0000
0000
ENDCHAR
STARTCHAR   ff
ENCODING 255
SWIDTH 480 0
DWIDTH 9 0
BBX 9 18 0 -2
BITMAP
0000
0000
0000
0000
0000
0000
0000
0000
0000
0000
0000
0000
0000
0000
0000
0000
0000
0000
ENDCHAR
ENDFONT
